<?xml version="1.0" encoding="utf-8"?>
<!-- Generator: Adobe Illustrator 26.1.0, SVG Export Plug-In . SVG Version: 6.00 Build 0)  -->
<svg version="1.1" id="Livello_1" xmlns="http://www.w3.org/2000/svg" xmlns:xlink="http://www.w3.org/1999/xlink" x="0px" y="0px"
	 viewBox="0 0 25 20" style="enable-background:new 0 0 25 20;" xml:space="preserve">
<style type="text/css">
	.st0{fill:#FFFFFF;}
</style>
<path class="st0" d="M1.5,8.5h15.1c0.8,0,1.5,0.7,1.5,1.5l0,0c0,0.8-0.7,1.5-1.5,1.5H1.5C0.7,11.5,0,10.8,0,10l0,0
	C0,9.2,0.7,8.5,1.5,8.5z"/>
<path class="st0" d="M1.5,16.8h20.6c0.8,0,1.5,0.7,1.5,1.5l0,0c0,0.8-0.7,1.5-1.5,1.5H1.5c-0.8,0-1.5-0.7-1.5-1.5l0,0
	C0,17.5,0.7,16.8,1.5,16.8z"/>
<path class="st0" d="M1.5,0.2h22c0.8,0,1.5,0.7,1.5,1.5l0,0c0,0.8-0.7,1.5-1.5,1.5h-22C0.7,3.2,0,2.5,0,1.7l0,0
	C0,0.8,0.7,0.2,1.5,0.2z"/>
</svg>
