<svg width="107" height="125" viewBox="0 0 107 125" fill="none" xmlns="http://www.w3.org/2000/svg">
<path fill-rule="evenodd" clip-rule="evenodd" d="M29.0744 13.7905C20.6334 13.7905 13.7905 20.6334 13.7905 29.0744V29.4441C13.7905 37.8852 20.6334 44.728 29.0744 44.728H51.2533C59.6944 44.728 66.5372 37.8852 66.5372 29.4441V29.0744C66.5372 20.6334 59.6944 13.7905 51.2533 13.7905H29.0744ZM0 29.0744C0 13.0171 13.0171 0 29.0744 0H51.2533C67.3107 0 80.3278 13.0171 80.3278 29.0744V29.4441C80.3278 45.5015 67.3107 58.5186 51.2533 58.5186H29.0744C13.0171 58.5186 0 45.5015 0 29.4441V29.0744Z" fill="white"/>
<path d="M77.8684 66.595H29.0745C13.0484 66.595 0.0567627 79.5867 0.0567627 95.6127V95.9822C0.0567627 112.008 13.0484 125 29.0745 125H77.8684C93.8945 125 106.886 112.008 106.886 95.9822V95.6127C106.886 79.5867 93.8945 66.595 77.8684 66.595Z" fill="white"/>
</svg>
