<svg width="50" height="50" viewBox="0 0 50 50" fill="none" xmlns="http://www.w3.org/2000/svg">
<path fill-rule="evenodd" clip-rule="evenodd" d="M25 50C38.8071 50 50 38.8071 50 25C50 11.1929 38.8071 0 25 0C11.1929 0 0 11.1929 0 25C0 38.8071 11.1929 50 25 50ZM30.8743 17.2116C31.1013 17.0599 31.3681 16.979 31.641 16.979C32.007 16.979 32.358 17.1244 32.6168 17.3832C32.8756 17.642 33.021 17.993 33.021 18.359C33.021 18.6319 32.9401 18.8987 32.7884 19.1257C32.6368 19.3526 32.4213 19.5295 32.1691 19.634C31.9169 19.7384 31.6395 19.7657 31.3718 19.7125C31.1041 19.6592 30.8582 19.5278 30.6652 19.3348C30.4722 19.1418 30.3408 18.8959 30.2875 18.6282C30.2343 18.3605 30.2616 18.0831 30.366 17.8309C30.4705 17.5787 30.6474 17.3632 30.8743 17.2116ZM36.402 16.9675C36.7299 17.8638 36.9086 18.8078 36.931 19.762C37 20.981 37 21.372 37 24.5C37 26.4258 36.9738 27.3142 36.9537 27.997C36.9412 28.4233 36.931 28.7695 36.931 29.238C36.9086 30.1922 36.7299 31.1362 36.402 32.0325C36.1126 32.8009 35.6571 33.496 35.068 34.068C34.4985 34.6575 33.8025 35.1097 33.0325 35.3905C32.1386 35.7284 31.1935 35.9112 30.238 35.931C29.019 36 28.628 36 25.5 36C22.372 36 21.981 36 20.762 35.931C19.8065 35.9112 18.8614 35.7284 17.9675 35.3905C17.1989 35.1069 16.5035 34.655 15.932 34.068C15.3425 33.4985 14.8903 32.8025 14.6095 32.0325C14.2716 31.1386 14.0888 30.1935 14.069 29.238C14 28.019 14 27.628 14 24.5C14 21.372 14 20.981 14.069 19.762C14.0888 18.8065 14.2716 17.8614 14.6095 16.9675C14.8903 16.1975 15.3425 15.5015 15.932 14.932C16.5035 14.345 17.1989 13.8931 17.9675 13.6095C18.8614 13.2716 19.8065 13.0888 20.762 13.069C21.981 13 22.372 13 25.5 13C28.628 13 29.019 13 30.238 13.069C31.1935 13.0888 32.1386 13.2716 33.0325 13.6095C33.8025 13.8903 34.4985 14.3425 35.068 14.932C35.6545 15.5062 36.1096 16.2006 36.402 16.9675ZM34.47 31.239C34.7204 30.5533 34.8526 29.83 34.861 29.1C34.9185 27.95 34.93 27.5245 34.93 24.5C34.93 21.4755 34.9185 21.05 34.861 19.9C34.8579 19.1545 34.7256 18.4153 34.47 17.715C34.2788 17.2351 33.9844 16.8033 33.6075 16.45C33.2306 16.0393 32.7616 15.724 32.239 15.53C31.5533 15.2796 30.83 15.1474 30.1 15.139C28.95 15.07 28.5245 15.07 25.5 15.07C23.6291 15.07 22.7527 15.0964 22.0841 15.1165C21.6719 15.129 21.3386 15.139 20.9 15.139C20.1548 15.1448 19.416 15.2771 18.715 15.53C18.2312 15.7406 17.7994 16.0546 17.45 16.45C17.0547 16.7969 16.744 17.2296 16.5415 17.715C16.2804 18.4141 16.1442 19.1537 16.139 19.9C16.07 21.05 16.07 21.4755 16.07 24.5C16.07 26.3709 16.0964 27.2473 16.1165 27.9159C16.129 28.3281 16.139 28.6614 16.139 29.1C16.1625 29.8497 16.3182 30.5894 16.599 31.285C16.7771 31.7855 17.0683 32.2381 17.45 32.6075C17.8081 32.9787 18.2386 33.2723 18.715 33.47C19.4333 33.7125 20.188 33.8292 20.946 33.815C22.096 33.884 22.5215 33.884 25.546 33.884C28.5705 33.884 28.996 33.8725 30.146 33.815C30.876 33.8066 31.5993 33.6744 32.285 33.424C32.7832 33.2359 33.2345 32.9416 33.6075 32.5615C33.9915 32.1917 34.2864 31.7395 34.47 31.239ZM22.2256 19.6003C23.1942 18.9507 24.3337 18.6028 25.5 18.6005C26.2761 18.5975 27.0452 18.7479 27.763 19.0432C28.4807 19.3384 29.1331 19.7727 29.6824 20.321C30.2317 20.8692 30.6673 21.5207 30.9639 22.2379C31.2606 22.9551 31.4125 23.7239 31.411 24.5C31.411 25.6663 31.0653 26.8065 30.4175 27.7764C29.7698 28.7463 28.8491 29.5025 27.7718 29.9493C26.6945 30.3962 25.5089 30.5137 24.3648 30.287C23.2207 30.0603 22.1695 29.4995 21.344 28.6756C20.5185 27.8517 19.9557 26.8016 19.7268 25.658C19.4978 24.5143 19.613 23.3285 20.0578 22.2503C20.5025 21.1721 21.2569 20.25 22.2256 19.6003ZM23.3724 27.6841C24.0022 28.1049 24.7426 28.3295 25.5 28.3295C26.0029 28.3295 26.5009 28.2304 26.9655 28.038C27.4301 27.8455 27.8523 27.5635 28.2079 27.2079C28.5635 26.8523 28.8455 26.4301 29.038 25.9655C29.2304 25.5009 29.3295 25.0029 29.3295 24.5C29.3295 23.7426 29.1049 23.0022 28.6841 22.3724C28.2633 21.7427 27.6652 21.2518 26.9655 20.962C26.2657 20.6722 25.4958 20.5963 24.7529 20.7441C24.0101 20.8918 23.3277 21.2566 22.7921 21.7921C22.2566 22.3277 21.8918 23.0101 21.7441 23.7529C21.5963 24.4958 21.6722 25.2657 21.962 25.9655C22.2518 26.6652 22.7427 27.2633 23.3724 27.6841Z" fill="#000101"/>
</svg>
