<svg width="50" height="50" viewBox="0 0 50 50" fill="none" xmlns="http://www.w3.org/2000/svg">
<path fill-rule="evenodd" clip-rule="evenodd" d="M25 50C38.8071 50 50 38.8071 50 25C50 11.1929 38.8071 0 25 0C11.1929 0 0 11.1929 0 25C0 38.8071 11.1929 50 25 50ZM32.0759 16C35.0169 16 37.3913 18.3596 37.3913 21.2823V27.7177C37.3913 30.6404 35.0169 33 32.0759 33H18.3154C15.3744 33 13 30.6404 13 27.7177V21.2823C13 18.3596 15.3744 16 18.3154 16H32.0759ZM23.226 27.8249L28.7033 24.8218C28.9461 24.6877 29 24.3391 28.7572 24.1782L23.226 21.041C22.9832 20.9069 22.7673 21.0946 22.7673 21.3628V27.5032C22.7673 27.7713 22.9832 27.959 23.226 27.8249Z" fill="#BFBFBF"/>
</svg>
